<?xml version="1.0" encoding="UTF-8" standalone="no"?>
<svg
   width="190"
   height="40"
   viewBox="0 0 190 40"
   version="1.1"
   id="svg36"
   sodipodi:docname="brainwave.svg"
   inkscape:version="1.2.2 (732a01da63, 2022-12-09)"
   xmlns:inkscape="http://www.inkscape.org/namespaces/inkscape"
   xmlns:sodipodi="http://sodipodi.sourceforge.net/DTD/sodipodi-0.dtd"
   xmlns="http://www.w3.org/2000/svg"
   xmlns:svg="http://www.w3.org/2000/svg">
  <defs
     id="defs40" />
  <sodipodi:namedview
     id="namedview38"
     pagecolor="#ffffff"
     bordercolor="#000000"
     borderopacity="0.25"
     inkscape:showpageshadow="2"
     inkscape:pageopacity="0.0"
     inkscape:pagecheckerboard="0"
     inkscape:deskcolor="#d1d1d1"
     showgrid="false"
     inkscape:zoom="6.8947368"
     inkscape:cx="95"
     inkscape:cy="20.087786"
     inkscape:window-width="1920"
     inkscape:window-height="991"
     inkscape:window-x="-9"
     inkscape:window-y="-9"
     inkscape:window-maximized="1"
     inkscape:current-layer="svg36" />
  <g
     fill="none"
     fill-rule="evenodd"
     id="g34"
     transform="matrix(0.99005189,0,0,0.92748092,0.4351145,1.4503817)">
    <path
       id="path22"
       d="m 101.28711,9.0078125 c -0.683,0 -1.26877,0.2281477 -1.759766,0.6855469 -0.49,0.4507996 -0.736328,0.9944596 -0.736328,1.6308596 0,0.642998 0.246328,1.193092 0.736328,1.65039 0.490996,0.4508 1.076766,0.675782 1.759766,0.675782 0.689,0 1.27577,-0.224982 1.75977,-0.675782 0.48998,-0.457298 0.73632,-1.007392 0.73632,-1.65039 0,-0.6364 -0.24634,-1.18006 -0.73632,-1.6308596 -0.484,-0.4573992 -1.07077,-0.6855469 -1.75977,-0.6855469 z M 59.367188,10.339844 c -0.0063,0.04551 -0.01128,0.09121 -0.01758,0.136718 0.891924,0.227349 1.783893,0.454197 2.675782,0.681641 -0.09865,-0.272647 -0.195332,-0.546067 -0.294922,-0.818359 z m 3.90039,0 c 0.151975,0.415849 0.298939,0.833528 0.449219,1.25 2.430084,0.619647 4.860409,1.238048 7.291015,1.855468 C 70.905277,13.220581 70.786491,13.004198 70.646484,12.796875 70.129486,12.021277 69.35441,11.417228 68.320312,10.986328 67.292816,10.55543 66.016784,10.339844 64.492188,10.339844 Z M 56,11.121094 v 0.707031 c 0.278073,-0.210728 0.733915,-0.151952 1.107422,0.01563 C 57.02337,11.689676 56.913746,11.505921 56.806641,11.326172 56.537605,11.258403 56.268851,11.189571 56,11.121094 Z m 3.152344,0.800781 c -0.02796,0.209644 -0.05725,0.41908 -0.08398,0.628906 0.275726,0.611591 0.535959,1.231035 0.775391,1.857422 0.422113,1.104079 0.663518,1.818136 0.861328,2.46875 0.0726,-0.0037 0.144454,-0.0023 0.216797,-0.0059 v -2.623047 h 2.212891 C 62.962754,13.76645 62.787316,13.286172 62.615239,12.804647 61.46095,12.510209 60.306683,12.216108 59.152349,11.921834 Z m 5.154297,1.3125 c 0.135054,0.378623 0.273684,0.755956 0.408203,1.134766 0.373784,0.09652 0.70153,0.247292 0.970703,0.464843 0.483898,0.3911 0.724609,0.92853 0.724609,1.611328 0,0.11324 -0.0061,0.222723 -0.01953,0.328126 0.0055,1.04e-4 0.01212,-1.19e-4 0.01758,0 1.495845,0.03239 2.989518,0.126243 4.484375,0.189453 0.100256,0.0064 0.200518,0.01315 0.300781,0.01953 0.156288,-0.45826 0.238282,-0.954244 0.238282,-1.492188 0,-0.154472 -0.01732,-0.300413 -0.0293,-0.449218 -2.365643,-0.600822 -4.730644,-1.20347 -7.095703,-1.806641 z m 17.609375,1.988281 c -0.680228,0 -1.288139,0.174057 -1.832032,0.503906 1.064104,0.266931 2.128837,0.531575 3.19336,0.796876 v -1.123047 c -0.2055,-0.0597 -0.427316,-0.102407 -0.666016,-0.128907 -0.2386,-0.0331 -0.469914,-0.04883 -0.695312,-0.04883 z m 8.320312,0.0098 c -1.365598,0 -2.535266,0.212519 -3.509766,0.636719 -0.665597,0.2872 -1.226005,0.655933 -1.697265,1.09375 1.39565,0.346417 2.788969,0.702091 4.185547,1.044921 0.336491,0.08262 0.6746,0.158307 1.011718,0.238282 1.692668,0.09887 3.385135,0.200219 5.078126,0.294922 0.319478,-0.07104 0.614241,-0.136148 1.230468,-0.277344 -0.01603,-0.03198 -0.028,-0.06612 -0.04492,-0.09766 -0.331998,-0.6298 -0.802311,-1.160999 -1.412109,-1.591797 -0.609898,-0.4375 -1.324586,-0.768841 -2.146484,-0.994141 -0.822,-0.2321 -1.720915,-0.347656 -2.695313,-0.347656 z m 24.886722,0 c -0.26354,0 -0.51727,0.01757 -0.76367,0.04687 -0.44699,0.116213 -0.89475,0.229744 -1.3418,0.345703 -0.28195,0.114641 -0.55445,0.245971 -0.80664,0.412109 -0.816,0.5303 -1.39247,1.262568 -1.73047,2.197266 h -0.16797 v -1.914063 c -1.54114,0.397103 -3.08223,0.7969 -4.625,1.1875 v 1.628907 c 2.05363,0.112254 4.10639,0.239164 6.1582,0.380859 0.37225,-0.196048 0.79287,-0.298828 1.26953,-0.298828 0.63118,0 1.1432,0.17177 1.54688,0.494141 1.99482,0.155861 2.60055,0.242049 4.69727,0.287109 0.33524,0.0072 0.67058,8.24e-4 1.00585,0 -0.0889,-0.749134 -0.28418,-1.429486 -0.59765,-2.033203 -0.438,-0.861698 -1.05361,-1.530513 -1.84961,-2.007813 -0.789,-0.483898 -1.72092,-0.726562 -2.79492,-0.726562 z m -16.271488,0.199219 v 2.277343 c 1.622258,-0.395277 3.241968,-0.798378 4.861328,-1.205078 v -1.072265 z m 6.835938,0 v 0.582031 c 0.75447,-0.191323 1.50768,-0.389034 2.26172,-0.582031 z m -46.988281,0.06641 c -0.06071,0.50603 -0.125853,1.011412 -0.185547,1.517578 0.161298,-0.01447 0.346534,-0.04402 0.501953,-0.05664 0.06138,-0.005 0.135201,-0.005 0.197266,-0.0098 -0.127965,-0.395471 -0.309784,-0.905105 -0.513672,-1.451172 z m 14.77539,0.07031 v 1.560547 c 0.747462,0.04703 1.495109,0.09129 2.242188,0.142578 2.02285,0.138881 1.780547,0.129252 2.480469,0.181641 V 16.75 c -1.57363,-0.39603 -3.149676,-0.783036 -4.722657,-1.181641 z m 5.421875,1.355469 c -0.104242,0.174203 -0.201656,0.356863 -0.287109,0.558594 0.769747,0.05921 2.266025,0.160888 3.501953,0.246094 -1.071722,-0.267674 -2.143528,-0.535405 -3.214844,-0.804688 z m 24.816406,1.074219 c -1.12554,0.28215 -2.25202,0.559189 -3.37891,0.835937 0.77668,0.04619 1.55334,0.09329 2.33008,0.136719 0.34974,0.01705 0.69916,0.03891 1.04883,0.05664 z m -37.642578,0.224609 c 0.08417,0.247306 0.168786,0.49454 0.251954,0.742188 0.713394,-0.02396 1.427256,-0.04351 2.142578,-0.03516 0.416411,0.0049 0.830418,0.04 1.246094,0.05469 0.240829,-0.179104 0.463786,-0.373772 0.658203,-0.591797 -1.318871,-0.06117 -2.637115,-0.14079 -3.957032,-0.169922 -0.106676,-0.0024 -0.233174,0.0019 -0.341797,0 z m -6.455078,0.15625 c -0.139273,0.0099 -0.299319,0.01068 -0.435546,0.02148 -0.306571,0.02431 -0.558207,0.06469 -0.845704,0.0918 -0.04493,0.383649 -0.09369,0.766748 -0.138672,1.15039 0.0265,-0.0031 0.110083,-0.01301 0.132813,-0.01563 0.511137,-0.05607 1.023784,-0.0978 1.535156,-0.152344 -0.07349,-0.334514 -0.178457,-0.811805 -0.248047,-1.095703 z m 5.046875,0.203125 c -0.311476,0.08377 -0.648331,0.13086 -1.015625,0.13086 h -2.472656 c 0.04827,0.214735 0.09693,0.424445 0.138672,0.617187 1.166874,-0.115178 2.333908,-0.223681 3.503906,-0.292969 -0.05134,-0.151717 -0.102478,-0.303515 -0.154297,-0.455078 z m 8.8125,0 v 0.664063 c 1.955165,0.201591 3.899794,0.489789 5.830079,0.871094 0.153465,-0.135364 0.317092,-0.259522 0.501953,-0.361329 0.463998,-0.258498 0.9858,-0.386718 1.5625,-0.386718 0.291698,0 0.622842,0.02196 0.99414,0.06836 0.3778,0.0464 0.682063,0.109953 0.914063,0.189453 v -0.361328 c -2.037437,-0.141453 -1.598948,-0.130841 -7.654297,-0.546875 -0.716103,-0.0492 -1.432359,-0.09158 -2.148438,-0.13672 z m 10.121094,0.705078 c -0.07611,0.257841 -0.140344,0.521535 -0.179687,0.796875 l 4.345703,0.154297 c 0.05017,-0.01098 0.100223,-0.02225 0.15039,-0.0332 0.05495,-0.233026 0.140883,-0.442931 0.261719,-0.626953 -0.663247,-0.0413 -1.327066,-0.07237 -1.990234,-0.115234 -2.068434,-0.133687 -1.824131,-0.123572 -2.587891,-0.175782 z m 15.255859,0.914063 v 0.04297 c 1.619678,0.362354 3.238838,0.724536 4.861328,1.074218 v -0.83789 c -0.37707,-0.01917 -0.75377,-0.04411 -1.13086,-0.0625 -1.24369,-0.06953 -2.48681,-0.147457 -3.730468,-0.216798 z m -30.455078,0.177734 c -0.52802,-0.0056 -1.055053,0.01439 -1.582031,0.02734 0.05075,0.155606 0.107935,0.309077 0.158203,0.464844 0.433478,1.343214 0.836689,2.696565 1.253906,4.044922 0.83037,-0.54666 1.42082,-0.959629 2.595704,-2.039063 0.218054,-0.20034 0.418873,-0.418369 0.625,-0.630859 -0.405874,-0.616907 -0.917926,-1.112601 -1.546875,-1.47461 -0.253701,-0.147386 -0.518652,-0.262387 -0.789063,-0.361328 -0.238624,-0.0059 -0.475974,-0.02873 -0.714844,-0.03125 z m -3.095703,0.08008 c -1.027185,0.0541 -2.051683,0.141377 -3.076172,0.236328 0.381971,0.348223 0.671231,0.75021 0.927735,1.189454 h 0.902344 c 0.629698,0 1.168442,0.106259 1.61914,0.318359 0.08174,0.03726 0.157441,0.0799 0.232422,0.123047 -0.103161,-0.330424 -0.200325,-0.662693 -0.306641,-0.992188 -0.09465,-0.293344 -0.20249,-0.582225 -0.298828,-0.875 z m 28.050781,0.01367 c -0.195521,0.04325 -0.987265,0.221593 -1.320312,0.298828 -0.061,0.106032 -0.14347,0.199742 -0.253906,0.277344 -0.2387,0.1657 -0.622046,0.295872 -1.152344,0.388672 -0.530298,0.0862 -1.231211,0.168447 -2.099609,0.248047 -0.604854,0.05171 -1.17223,0.152917 -1.720703,0.28125 0.0026,7.56e-4 0.0052,0.0012 0.0078,0.002 2.594971,0.762139 6.461923,2.105871 9.021484,3.070312 0.388587,0.14642 0.776263,0.296405 1.164063,0.445313 v -4.183594 c -1.215626,-0.275926 -2.432799,-0.54355 -3.646485,-0.828125 z m 12.335938,0.115235 v 1.148437 c 1.62032,0.344579 3.24099,0.688044 4.86328,1.023438 v -0.765625 c 0.005,-0.41044 0.0611,-0.776418 0.16406,-1.101563 -1.67524,-0.111155 -3.3509,-0.212859 -5.02734,-0.304687 z m -32.212891,0.115234 v 0.527344 c 0.2029,0.201744 0.236822,0.560945 0,0.953125 v 5.359375 c 0.729319,0.05128 1.458323,0.107327 2.1875,0.160156 -0.05903,-0.142591 -0.123661,-0.282436 -0.185547,-0.423828 -0.118468,-0.623634 -0.289959,-1.070535 -0.05273,-1.708985 0.470588,-1.266505 1.676812,-2.004269 2.91211,-2.568359 v -0.589844 c 0,-0.357899 0.05159,-0.685151 0.140624,-0.988281 -1.657295,-0.313378 -3.326159,-0.543532 -5.001953,-0.720703 z M 60.066406,21.15625 c -0.136821,0.001 -0.276051,0.01385 -0.410156,0.0039 -0.886539,0.242058 -0.569727,0.113124 -1.402344,0.509766 -0.08423,0.04012 -0.167722,0.08053 -0.25,0.125 -0.01299,0.260736 -0.01991,0.463113 -0.03125,0.755859 -0.11826,0.909739 -0.215074,1.82196 -0.355468,2.728516 0.904752,0.712771 1.939455,1.280848 3.039062,1.591797 0.130916,-2.207144 -0.08427,-3.098878 -0.392578,-5.621094 -0.007,-0.03112 -0.0068,-0.03389 -0.01367,-0.06445 -0.06168,-0.0076 -0.119913,-0.02978 -0.183594,-0.0293 z m 55.439454,0.07813 c 0.0358,0.215673 0.0584,0.442278 0.0566,0.689453 v 0.875 c 1.92718,-0.121261 3.40341,-0.172939 4.86133,-0.214844 v -1.134765 c -0.37577,0.0014 -0.75161,0.0082 -1.12695,0 -1.70392,-0.03739 -2.55514,-0.111361 -3.79102,-0.214844 z m -16.654298,0.488281 v 4.509766 c 0.183087,0.07746 0.36893,0.1482 0.550782,0.228516 0.745746,0.32936 1.637566,0.504632 2.177736,1.115234 0.40037,0.452588 0.25102,1.182432 0.37695,1.773437 -0.28572,0.103048 -0.55782,0.258704 -0.85742,0.308594 -0.29876,0.04974 -1.307837,0.09152 -2.248048,0.123047 v 0.921875 h 4.861328 v -7.916016 c -1.6217,-0.349469 -3.24236,-0.702594 -4.861328,-1.064453 z m -14.28125,1.150391 c -0.01321,0.009 -0.02791,0.01627 -0.04102,0.02539 -0.5237,0.364598 -0.934122,0.838576 -1.232422,1.421874 -0.2983,0.5833 -0.447266,1.30004 -0.447266,2.148438 0,0.656569 0.100256,1.233068 0.283203,1.746094 1.815705,0.09057 3.070794,0.126533 5.460938,0.193359 2.801345,0.0357 5.603294,0.03203 8.404297,-0.0293 V 27.0625 c -0.566894,-0.224294 -1.128697,-0.461359 -1.699219,-0.675781 -0.895621,-0.336608 -2.02899,-0.731877 -3.123047,-1.117188 v 0.0059 c 0,0.497098 -0.127006,0.9346 -0.378906,1.3125 -0.2519,0.371198 -0.589372,0.6628 -1.013672,0.875 -0.417598,0.212098 -0.888411,0.318359 -1.412109,0.318359 -0.5568,0 -1.01626,-0.133238 -1.38086,-0.398438 -0.357898,-0.265098 -0.537109,-0.650498 -0.537109,-1.154296 0,-0.3314 0.08225,-0.614916 0.248047,-0.853516 0.1723,-0.2453 0.418228,-0.445156 0.736328,-0.597656 0.3249,-0.1525 0.714575,-0.264991 1.171875,-0.337891 0.03055,-0.0045 0.06479,-0.01101 0.0957,-0.01563 -1.171846,-0.390937 -2.372792,-0.792935 -3.33789,-1.076172 -0.594349,-0.174429 -1.197609,-0.317376 -1.796876,-0.474609 z m 21.117188,0.339844 v 7.490234 h 4.86328 v -5.158203 c -0.24511,-0.170823 -0.46735,-0.383172 -0.70703,-0.564453 0.24839,-0.19186 0.47554,-0.423143 0.70703,-0.646485 v -0.107422 c -1.62164,-0.335393 -3.24358,-0.669194 -4.86328,-1.013671 z m -33.613281,0.453125 c -0.107619,0.105207 -0.207039,0.218798 -0.31836,0.320312 -1.40243,1.278888 -2.019276,1.682845 -3.117187,2.386719 0.0882,0.308629 0.173529,0.616124 0.261719,0.927734 0.925312,0.02497 1.849807,0.07191 2.773437,0.125 0.363287,-0.732044 0.552734,-1.536555 0.552734,-2.419922 0,-0.478923 -0.05125,-0.924115 -0.152343,-1.339843 z m 48.349611,0.349609 c -1.01297,0.02894 -2.02542,0.07131 -3.03711,0.125 1.01249,0.203627 2.02435,0.411121 3.03711,0.613281 z m -42.087892,0.611328 c -0.145086,0.08263 -0.261359,0.123004 -0.427735,0.230469 -0.207243,0.133862 -0.880603,0.641877 -1.054687,0.947266 -0.179821,0.315448 -0.08294,0.575497 -0.04102,0.910156 0.07843,0.195781 0.134765,0.400034 0.234375,0.585937 0.09136,0.170514 0.22311,0.351233 0.347656,0.529297 0.313756,0.02362 0.627668,0.04412 0.941407,0.06836 z m -11.464844,0.818359 c -0.08717,0.180393 -0.20857,0.339512 -0.34961,0.486329 0.147081,-0.06819 0.27861,-0.12536 0.431641,-0.195313 -0.02701,-0.09523 -0.05458,-0.19422 -0.08203,-0.291016 z m 48.691406,1.097657 v 2.8125 c 3.13816,-1.192055 3.67911,-1.405134 4.86133,-1.861328 v -0.570313 c -1.08759,-0.06558 -2.17596,-0.120078 -3.26172,-0.21289 -0.30655,-0.0262 -1.03257,-0.11059 -1.59961,-0.167969 z m -53.431641,0.193359 c -0.0082,0.124027 -0.0068,0.249907 -0.01953,0.373047 0.154446,0.009 0.307445,0.02989 0.462891,0.02734 0.4379,-0.0072 0.837714,-0.05953 1.216797,-0.140625 -0.03157,-0.08701 -0.0658,-0.172875 -0.09766,-0.259766 z m -4.779297,0.136719 c -1e-5,0.104112 -0.01009,0.202135 -0.01562,0.302734 0.236485,0.04213 0.470002,0.09775 0.708984,0.126953 -0.235048,-0.136356 -0.468901,-0.27624 -0.69336,-0.429687 z m 9.998047,0.273437 c -0.09863,0.04379 -0.188396,0.08416 -0.283203,0.126954 0.118192,2.2e-4 0.157183,-1.41e-4 0.31836,0 -0.01207,-0.0424 -0.02308,-0.08461 -0.03516,-0.126954 z m 31.501953,0.667969 v 0.513672 c 0.20116,-0.0071 0.402474,-0.01048 0.603516,-0.01953 0.171883,-0.0077 0.139284,-0.0012 0.267578,-0.0039 -0.288336,-0.166903 -0.573057,-0.350095 -0.871094,-0.490235 z m -31.058593,0.908203 c -1.327806,-6.6e-5 -1.75307,6.02e-4 -1.847657,0.002 0.09528,0.272288 0.195981,0.542827 0.292969,0.814453 0.641599,0.175313 1.278535,0.366043 1.916016,0.554688 -0.117526,-0.458648 -0.235509,-0.913428 -0.361328,-1.371094 z m -3.371094,0.04297 c -0.146236,0.01109 -0.364644,0.02287 -1.042969,0.04687 0.387918,0.09471 0.77414,0.194559 1.16211,0.289062 -0.03916,-0.112204 -0.08004,-0.223706 -0.119141,-0.335937 z m 4.888672,0.002 c 0.08053,0.298076 0.151807,0.596293 0.228515,0.894531 0.411809,-0.242261 0.773411,-0.521933 1.09375,-0.830078 -0.440743,-0.02122 -0.881117,-0.04977 -1.322265,-0.06445 z m 4.164062,0.230469 v 1.705078 h 4.365235 C 77.565288,30.382393 77.287852,30.063976 77.021484,29.736381 76.897598,29.584018 76.756649,29.401885 76.619141,29.226615 75.570998,29.149675 74.522898,29.0717 73.474609,28.9981 Z m 46.949221,0.04883 c -0.84636,0.325904 -1.57108,0.609719 -4.32617,1.65625 h 4.32617 z m -61.802736,0.367187 c 0.07249,0.04914 0.134783,0.115372 0.214844,0.152344 0.288691,0.133319 0.631231,0.11352 0.925781,-0.01367 -0.363869,-0.05741 -0.746111,-0.103154 -1.140625,-0.138672 z m -1.898438,0.232422 c -0.0879,0.349944 -0.16661,0.690526 -0.261718,1.056641 h 1.52539 c -0.0296,-0.01453 -0.06705,-0.01979 -0.0957,-0.03516 -0.456399,-0.244769 -0.79898,-0.651909 -1.167969,-1.021485 z m 27.400391,0.06641 c 0.332307,0.30868 0.712753,0.56722 1.152344,0.761718 0.755698,0.3249 1.619352,0.488282 2.59375,0.488282 0.709298,0 1.346656,-0.09053 1.910156,-0.269532 0.570098,-0.178998 1.062869,-0.446687 1.480469,-0.804687 0.006,-0.0051 0.01161,-0.01053 0.01758,-0.01563 -0.908085,-0.0036 -1.816753,-0.0039 -2.72461,-0.01563 -1.944039,-0.05452 -3.137152,-0.09068 -4.429687,-0.144531 z m 12.875,0.117187 c -1.52463,0.03306 -3.049036,0.04818 -4.574219,0.04883 v 0.824219 h 4.574219 z m -35.666016,0.02148 c -0.08342,0.144425 -0.166216,0.289191 -0.269531,0.419922 -0.144973,0.183448 -0.32192,0.318578 -0.509766,0.431641 h 4.429688 C 64.231008,30.51036 63.475626,30.330861 62.722656,30.144531 62.217216,30.038817 61.78397,29.947945 61.332031,29.851562 Z" />
    <path
       id="polygon24"
       d="m 121.18945,15.431641 1.1875,4.554687 c 0.67772,-0.01588 1.35547,-0.0322 2.03321,-0.04492 0.92172,-0.01731 1.49408,-0.02419 2.14648,-0.0332 0.14993,-0.01721 0.30054,-0.02084 0.45117,-0.0332 l -0.93554,-4.443359 z m 9.27735,0 -0.45703,2.021484 c 0.009,-0.0011 0.0187,0.0012 0.0273,0 1.8317,-0.245781 3.664,-0.485229 5.49609,-0.726563 l -0.30273,-1.294921 z m 9.1582,0 -0.0156,0.07617 c 0.0832,-0.026 0.16682,-0.05013 0.25,-0.07617 z m 4.46875,1.58789 c -1.05218,0.144947 -2.10367,0.295014 -3.15625,0.4375 1.08904,0.241071 2.19595,0.388844 2.91406,0.488281 z m -8.23047,1.125 c -0.22848,0.0302 -0.45703,0.05973 -0.68555,0.08984 0.23764,0.0094 0.47527,0.01969 0.71289,0.0293 z m -4.95703,1.378907 c -0.45547,0.008 -0.92122,0.05448 -1.37695,0.0625 l -0.0508,0.226562 c 0.42254,0.0074 0.87433,0.01475 1.20507,0.01563 2.0813,0.0055 3.8462,0.07253 5.61133,0.164063 l -0.0625,-0.263672 c -1.62491,-0.06476 -3.25029,-0.127142 -4.875,-0.197266 -0.14885,-0.0086 -0.29935,-0.01048 -0.45117,-0.0078 z m 7.81445,0.308593 -0.0625,0.296875 c 0.76846,0.04594 1.4623,0.08325 2.31836,0.132813 0.37497,0.01725 0.74998,0.03431 1.125,0.05078 0.38295,-0.08633 0.81201,-0.156928 1.19141,-0.234375 l 0.006,-0.01953 c -1.52599,-0.07933 -3.05144,-0.162693 -4.57813,-0.226563 z m -15.64648,1.587891 c -0.10742,0.0025 -0.21484,0.0053 -0.32227,0.0078 l 0.28125,1.082032 c 0.43953,-0.0011 0.86643,0.0023 1.3125,-0.002 -0.71397,-0.352273 -1.28081,-0.762748 -1.27148,-1.08789 z m 19.66992,0.763672 c -0.95161,0.05722 -1.94407,0.11105 -2.95312,0.162109 -0.27556,0.06734 -0.55203,0.130348 -0.82813,0.195313 -0.27297,0.07428 -0.54235,0.15938 -0.81445,0.236328 0.5097,0.0238 1.01963,0.04236 1.52929,0.06641 0.65546,-0.04433 1.31156,-0.08651 1.9668,-0.128906 0.32823,-0.0286 0.6561,-0.05902 0.98438,-0.08594 z m -8.88281,0.388672 c -0.23806,0.0068 -0.48371,0.01623 -0.7168,0.02148 l 0.002,0.0059 c 0.1958,0.0054 0.39608,0.01125 0.5879,0.01563 0.0424,-0.0139 0.0845,-0.02912 0.12695,-0.04297 z m -8.18164,1.36914 c -0.74077,0.002 -1.49498,0.0076 -2.26953,0.01758 l 0.38476,1.47461 c 0.44414,0.08654 0.88776,0.17591 1.33203,0.261718 0.86362,-0.329364 1.73709,-0.631136 2.60352,-0.953124 -0.0328,-0.242789 0.0467,-0.408913 0.19141,-0.523438 l -0.0567,-0.271484 c -0.71742,-0.0063 -1.44477,-0.0079 -2.18554,-0.0059 z m 6.29492,0.806641 c -0.51589,0.179254 -1.02885,0.366284 -1.54297,0.550781 0.29473,0.191718 0.58383,0.399771 0.89063,0.556641 0.1041,0.05323 0.20984,0.103801 0.31445,0.15625 z m 8.0293,0.199219 c 0.65512,0.06593 1.3097,0.137831 1.96484,0.205078 l 0.01,-0.0332 c -0.65821,-0.05702 -1.31588,-0.120995 -1.97461,-0.171875 z m -5.99024,0.882812 0.0781,0.292969 c 1.01701,0.03819 1.98443,0.07407 3.11328,0.117187 0.5306,0.01356 1.06122,0.02603 1.5918,0.04102 -1.59405,-0.155588 -3.18873,-0.302281 -4.78321,-0.451172 z m -8.75976,1.369141 c -0.3027,0.115765 -0.60529,0.23204 -0.90821,0.347656 l 0.69141,2.652344 c 1.89619,-0.344818 3.80305,-0.624817 5.71289,-0.882813 l 0.26562,-0.99414 c -1.91982,-0.378346 -3.84078,-0.751169 -5.76171,-1.123047 z m 9.65625,0.404297 c 1.226,0.241708 2.45333,0.476909 3.67968,0.716796 0.0657,-0.0079 0.13154,-0.01574 0.19727,-0.02344 0.43924,-0.05147 1.52736,-0.173503 2.43359,-0.275391 l 0.0586,-0.226562 c -1.31428,-0.03398 -2.58632,-0.06654 -4.11133,-0.105469 -0.81904,-0.03127 -1.49695,-0.05756 -2.25781,-0.08594 z m 4.80078,2.414062 c 0.2897,0.148397 0.58271,0.299237 0.87109,0.445313 l 0.0684,-0.261719 c -0.31324,-0.06074 -0.62626,-0.12261 -0.93945,-0.183594 z m -3.2168,0.01953 c -0.43665,0.05154 -0.87198,0.113641 -1.30859,0.166016 l 0.13476,0.5 h 2.51953 c -0.17019,-0.08356 -0.41154,-0.202509 -0.55468,-0.273437 -0.12515,-0.06146 -0.58061,-0.289477 -0.79102,-0.392579 z" />
    <path
       id="path26"
       d="m 154.50781,15.527344 c -2.41788,0.351843 -4.8353,0.707178 -7.2539,1.052734 -0.40213,0.297124 -0.74919,0.635918 -1.03907,1.019531 -0.13542,0.179226 -0.25905,0.363452 -0.36914,0.554688 1.85244,0.200839 3.73337,0.396605 5.47657,0.572265 0.19983,-0.03652 0.41553,-0.05469 0.64843,-0.05469 0.45381,0 0.83609,0.08273 1.14844,0.244141 0.001,-2.9e-5 0.003,2.8e-5 0.004,0 1.83575,-0.04001 3.67289,0.02312 5.50195,0.185546 -0.0838,-0.330939 -0.2025,-0.643289 -0.35938,-0.935546 -0.33198,-0.6298 -0.8021,-1.160999 -1.4121,-1.591797 -0.61,-0.4375 -1.32644,-0.768841 -2.14844,-0.994141 -0.0649,-0.01834 -0.13138,-0.03585 -0.19727,-0.05273 z m -4.71679,6.595703 c -0.10224,0.627995 -0.49526,1.006006 -1.00586,1.240234 0.75647,0.057 1.51258,0.115278 2.26953,0.16211 0.61653,-0.197091 1.22881,-0.294454 1.38086,-0.34961 1.02609,-0.297545 2.06684,-0.542093 3.10742,-0.783203 -1.91733,-0.09154 -3.83423,-0.185661 -5.75195,-0.269531 z m 8.98046,1.765625 c -0.40092,0.07479 -0.82921,0.172096 -1.15039,0.298828 0.38948,-0.02864 0.76046,-0.06344 1.15039,-0.09375 z m -14.05078,1.478516 c -0.005,0.02818 -0.009,0.05736 -0.0137,0.08594 1.36333,0.144499 3.31454,0.379974 4.52735,0.941406 -0.005,-0.05391 -0.008,-0.109059 -0.008,-0.166015 0,-0.132919 0.0163,-0.255038 0.043,-0.373047 -0.29918,-0.0343 -0.67819,-0.0806 -0.93359,-0.109375 -1.20398,-0.135661 -2.40926,-0.259935 -3.61524,-0.378906 z m 14.05078,0.175781 c -0.5419,0.04122 -1.0621,0.08943 -1.60156,0.126953 0.0538,0.0152 0.12963,0.02753 0.18164,0.04297 0.50077,0.148634 0.95785,0.409117 1.41992,0.658203 z m -5.11132,0.902343 c -0.0124,0.02216 -0.0278,0.04267 -0.041,0.06445 0.16059,-4.4e-4 0.36295,0.0053 0.51563,0.0039 -0.15689,-0.02638 -0.31582,-0.04304 -0.47461,-0.06836 z m 4.80664,1.431641 c 0.0405,0.01056 0.0805,0.02732 0.12109,0.03516 -0.0217,-0.01105 -0.0429,-0.02378 -0.0644,-0.03516 -0.0189,5.55e-4 -0.0378,-5.51e-4 -0.0566,0 z m -1.91602,0.04102 c -0.67903,0.01433 -1.35797,0.03401 -2.03711,0.04102 -1.76914,0.01824 -3.37873,0.0164 -4.93164,0.0039 -0.0257,0.05641 -0.0709,0.118315 -0.0859,0.171875 -0.62373,0.174372 -1.23431,0.403339 -1.87109,0.521484 -0.49189,0.09126 -1.51547,0.209675 -2.35938,0.320312 0.002,0.0024 0.002,0.0054 0.004,0.0078 0.18982,0.287896 0.41107,0.542815 0.66016,0.767578 0.003,6.13e-4 0.007,0.0013 0.01,0.002 0.71553,0.134396 1.09304,0.189555 1.68555,0.298828 0.16928,-0.03253 0.33899,-0.06294 0.50781,-0.09766 1.96951,-0.404981 3.9355,-0.829313 5.89063,-1.298828 0.003,-7.71e-4 0.007,-0.0012 0.01,-0.002 0.0146,-0.02656 0.0307,-0.05112 0.0449,-0.07813 h 0.11915 v 0.0293 c 0.79091,-0.202821 1.56562,-0.475714 2.35351,-0.6875 z m 2.2207,0.527343 c -0.0579,0.08714 -0.10792,0.180036 -0.19726,0.244141 -0.55418,0.397632 -2.42408,0.917538 -4.37695,1.398438 v 0.615234 h 4.57421 z" />
    <path
       id="polygon28"
       d="m 158.85547,15.431641 1.31445,3.839843 c 0.48077,0.05676 0.96257,0.102567 1.44141,0.171875 0.6394,0.102913 0.91123,0.15757 1.36719,0.230469 0.44088,-0.09524 0.87947,-0.19946 1.31445,-0.324219 0.22264,-0.07832 0.44413,-0.160568 0.66797,-0.236328 l -0.98438,-3.68164 z m 10.91797,0 -0.47266,1.761718 c 0.92545,-0.517997 1.81128,-1.098603 2.63672,-1.761718 z m 4.35742,0 c -1.52872,1.52875 -3.38999,2.736232 -5.34766,3.689453 l -0.39453,1.470703 c 1.48085,0.268137 2.9651,0.538028 4.43555,0.865234 l 2.06836,-6.02539 z M 163,21.146484 c -0.35498,0.07207 -0.71468,0.11315 -1.07227,0.169922 0.35584,0.02445 0.5782,0.03229 1.02344,0.0625 0.8919,0.06834 1.7843,0.145412 2.67578,0.22461 l -0.004,-0.01563 C 164.80702,21.451966 163.82805,21.278985 163,21.146484 Z m 2.38281,2.310547 c -0.94633,0.0065 -1.89009,0.02882 -3.14843,0.09375 -0.19429,0.01002 -0.38773,0.03337 -0.58204,0.04492 l 0.0879,0.255859 c 0.57191,-0.04831 1.17804,-0.09321 1.73047,-0.140624 0.88429,-0.08418 1.76793,-0.168985 2.65235,-0.251954 -0.22741,-9.3e-5 -0.51857,-0.0035 -0.74024,-0.002 z m 6.45313,0.884766 c -1.04979,0.286413 -2.25016,0.231424 -3.56836,0.369141 -0.3369,0.0352 -0.6746,0.06264 -1.01172,0.0957 l -0.30664,1.144531 h -0.16016 l -0.28711,-1.072266 c -0.96495,0.09157 -1.92968,0.185438 -2.89453,0.277344 -0.44159,0.03791 -0.92867,0.07296 -1.38281,0.111328 l 0.3457,1.013672 c 2.5108,-0.101139 5.73153,-0.296581 8.78125,-0.527344 z m -1.00586,2.925781 c -2.7884,0.196968 -5.69708,0.352119 -7.77149,0.439453 l 1.02735,2.996094 h 5.5664 z" />
    <path
       id="path30"
       d="m 182.13672,15.232422 c -1.538,0 -2.87381,0.331242 -4.00781,0.99414 -1.133,0.6562 -2.01272,1.577076 -2.63672,2.763672 -0.45509,0.861887 -0.73993,1.833329 -0.86133,2.908204 0.88672,0.232802 1.76736,0.486578 2.63476,0.789062 0.46887,0.182204 0.94581,0.344356 1.40626,0.546875 0.63585,0.279669 1.22871,0.627734 1.79882,1.005859 h 9.0625 v -1.21289 c 0,-1.252798 -0.18187,-2.36228 -0.54687,-3.330078 -0.364,-0.974398 -0.87525,-1.794232 -1.53125,-2.457032 -0.656,-0.662898 -1.43589,-1.1619 -2.33789,-1.5 -0.901,-0.337998 -1.89347,-0.507812 -2.98047,-0.507812 z m 0.0977,3.509766 c 0.53698,0 1.01087,0.115656 1.42187,0.347656 0.417,0.2254 0.74639,0.540914 0.98437,0.945312 0.239,0.4044 0.36215,0.86386 0.36915,1.38086 h -5.6543 c 0.0249,-0.491064 0.15362,-0.932636 0.39258,-1.322266 0.252,-0.4177 0.59439,-0.745775 1.02539,-0.984375 0.431,-0.2453 0.91694,-0.367187 1.46094,-0.367187 z m -7.61719,5.564453 c 0.0416,0.406862 0.10716,0.797147 0.19336,1.171875 0.0618,-0.0063 0.15002,-0.0112 0.21093,-0.01758 0.98116,-0.102718 1.95213,-0.28084 2.92774,-0.427735 -0.69639,-0.169868 -1.31444,-0.310691 -2.0625,-0.478515 -0.45646,-0.09455 -0.85719,-0.165144 -1.26953,-0.248047 z m 5.05469,1.605468 c -0.29244,0.164384 -0.65441,0.25456 -0.94727,0.417969 -1.15116,0.1864 -2.29454,0.428273 -3.45313,0.560547 0.0663,0.151059 0.13738,0.298955 0.2129,0.443359 0.62298,1.173298 1.51106,2.076493 2.66406,2.712891 1.16,0.629698 2.53872,0.945313 4.13672,0.945313 0.55116,-10e-7 1.07361,-0.038 1.57031,-0.107422 -0.33297,-0.79539 -0.7325,-1.565662 -1.17383,-2.289063 -0.18743,-0.307225 -0.39862,-0.598605 -0.59766,-0.898437 -0.0646,-0.08751 -0.1417,-0.161391 -0.20898,-0.246094 -0.41509,-0.05211 -0.78553,-0.170682 -1.11133,-0.357422 -0.45,-0.2586 -0.79892,-0.619986 -1.04492,-1.083984 -0.0167,-0.032 -0.0314,-0.06495 -0.0469,-0.09766 z m 5.34765,0.0098 c -0.126,0.338 -0.31636,0.621516 -0.56836,0.853516 -0.24898,0.229223 -0.54602,0.40227 -0.89258,0.521484 0.13193,0.195122 0.26666,0.388471 0.38868,0.589844 0.47183,0.778707 0.95134,1.720741 1.33984,2.679687 0.17608,-0.05575 0.35009,-0.114924 0.51758,-0.18164 1.014,-0.411 1.83303,-0.982952 2.45703,-1.71875 0.629,-0.7424 1.03666,-1.614237 1.22266,-2.615235 z" />
    <polygon
       fill="#ac6aff"
       fill-rule="nonzero"
       points="31.931,8.2 31.936,11.402 28.988,13.398 26.977,11.931 26.977,9.446 23.7,7.204 23.7,11.727 18.505,14.915 18.495,23.335 14.822,25.403 12.937,23.926 12.937,21.488 15.169,19.959 15.169,19.939 15.169,16.166 11.152,18.854 8.081,16.856 5.276,18.693 9.659,21.694 9.659,23.536 6.5,25.674 3.277,23.492 3.277,16.23 8.062,12.991 8.066,9.875 14.203,13.827 19.361,10.394 16.216,8.559 14.159,9.947 9.677,6.983 14.731,4.036 19.11,6.603 19.11,2.775 14.736,0.211 4.794,6.008 4.787,11.223 0,14.465 0,25.257 4.787,28.499 4.794,33.714 14.414,40 14.414,35.981 8.069,31.803 8.064,28.601 11.012,26.605 13.023,28.072 13.023,30.557 16.3,32.798 16.3,28.275 21.569,25.088 21.628,16.667 25.178,14.599 27.063,16.076 27.063,18.514 24.831,20.043 24.831,20.063 24.831,23.837 28.848,21.148 31.919,23.146 34.724,21.309 30.34,18.306 30.34,16.466 33.5,14.329 36.723,16.511 36.723,23.772 31.939,27.012 31.934,30.127 25.797,26.173 20.639,29.584 23.784,31.416 25.841,30.055 30.323,33.019 25.269,35.966 20.89,33.399 20.89,37.225 25.264,39.789 35.206,33.995 35.213,28.779 40,25.537 40,14.743 35.213,11.501 35.206,6.288 25.586,0 25.586,4.022 "
       id="polygon32" />
  </g>
  <text
     xml:space="preserve"
     style="font-style:normal;font-variant:normal;font-weight:bold;font-stretch:normal;font-size:24.0876px;font-family:Verdana;-inkscape-font-specification:'Verdana Bold';fill:#ffffff;stroke-width:0.821175"
     x="47.858429"
     y="28.855516"
     id="text1007"
     transform="scale(0.99222263,1.0078383)"><tspan
       sodipodi:role="line"
       id="tspan1005"
       x="47.858429"
       y="28.855516"
       style="font-style:normal;font-variant:normal;font-weight:bold;font-stretch:normal;font-family:Verdana;-inkscape-font-specification:'Verdana Bold';fill:#ffffff;stroke-width:0.821175">RASA.ai</tspan></text>
</svg>
